<?xml version="1.0" encoding="utf-8"?>
<!-- Generator: Adobe Illustrator 26.1.0, SVG Export Plug-In . SVG Version: 6.00 Build 0)  -->
<svg version="1.1" id="Layer_1" xmlns="http://www.w3.org/2000/svg" xmlns:xlink="http://www.w3.org/1999/xlink" x="0px" y="0px"
	 viewBox="0 0 30 30" style="enable-background:new 0 0 30 30;" xml:space="preserve">
<g>
	<path d="M17.11,0.21h-4.23c-0.58,0-1.06,0.47-1.06,1.06v1.06h6.34V1.27C18.17,0.68,17.7,0.21,17.11,0.21z M4.43,8.66v16.9
		c0,2.33,1.89,4.23,4.23,4.23h12.68c2.33,0,4.23-1.89,4.23-4.23V8.66H4.43z M10.77,25.57c0,0.58-0.47,1.06-1.06,1.06
		s-1.06-0.47-1.06-1.06V12.89c0-0.58,0.47-1.06,1.06-1.06s1.06,0.47,1.06,1.06V25.57z M16.06,25.57c0,0.58-0.47,1.06-1.06,1.06
		c-0.58,0-1.06-0.47-1.06-1.06V12.89c0-0.58,0.47-1.06,1.06-1.06c0.58,0,1.06,0.47,1.06,1.06V25.57z M21.34,25.57
		c0,0.58-0.47,1.06-1.06,1.06c-0.58,0-1.06-0.47-1.06-1.06V12.89c0-0.58,0.47-1.06,1.06-1.06c0.58,0,1.06,0.47,1.06,1.06V25.57z
		 M25.57,7.6H4.43c-1.17,0-2.11-0.95-2.11-2.11l0,0c0-1.17,0.95-2.11,2.11-2.11h21.13c1.17,0,2.11,0.95,2.11,2.11l0,0
		C27.68,6.66,26.73,7.6,25.57,7.6z"/>
</g>
</svg>
