<?xml version="1.0" encoding="utf-8"?>
<!-- Generator: Adobe Illustrator 26.1.0, SVG Export Plug-In . SVG Version: 6.00 Build 0)  -->
<svg version="1.1" id="Layer_1" xmlns="http://www.w3.org/2000/svg" xmlns:xlink="http://www.w3.org/1999/xlink" x="0px" y="0px"
	 viewBox="0 0 30 30" style="enable-background:new 0 0 30 30;" xml:space="preserve">
<style type="text/css">
	.st0{fill:#00B4D8;}
</style>
<g>
	<g>
		<circle class="st0" cx="8.86" cy="3.64" r="3.32"/>
		<g>
			<path class="st0" d="M11.86,3.64c-0.01,1.24-0.79,2.4-1.97,2.82c-1.2,0.43-2.53,0.06-3.35-0.91c-0.81-0.97-0.9-2.4-0.24-3.47
				c0.64-1.06,1.92-1.63,3.13-1.38C10.83,0.97,11.85,2.21,11.86,3.64c0,0.41,0.64,0.41,0.64,0c-0.01-1.52-0.97-2.89-2.4-3.42
				c-1.41-0.52-3.08-0.07-4.03,1.1C5.09,2.5,4.94,4.2,5.75,5.52C6.54,6.83,8.1,7.5,9.6,7.2c1.67-0.34,2.88-1.87,2.89-3.56
				C12.5,3.23,11.86,3.23,11.86,3.64z"/>
		</g>
	</g>
	<g>
		<circle class="st0" cx="8.86" cy="15" r="3.32"/>
		<g>
			<path class="st0" d="M11.86,15c-0.01,1.24-0.79,2.4-1.97,2.82c-1.2,0.43-2.53,0.06-3.35-0.91c-0.81-0.97-0.9-2.4-0.24-3.47
				c0.64-1.06,1.92-1.63,3.13-1.38C10.83,12.34,11.85,13.58,11.86,15c0,0.41,0.64,0.41,0.64,0c-0.01-1.52-0.97-2.89-2.4-3.42
				c-1.41-0.52-3.08-0.07-4.03,1.1c-0.97,1.19-1.12,2.89-0.32,4.21c0.8,1.31,2.36,1.98,3.85,1.68c1.67-0.34,2.88-1.87,2.89-3.56
				C12.5,14.59,11.86,14.59,11.86,15z"/>
		</g>
	</g>
	<g>
		<circle class="st0" cx="8.86" cy="26.37" r="3.32"/>
		<g>
			<path class="st0" d="M11.86,26.37c-0.01,1.24-0.79,2.4-1.97,2.82c-1.2,0.43-2.53,0.06-3.35-0.91c-0.81-0.97-0.9-2.4-0.24-3.47
				c0.64-1.06,1.92-1.63,3.13-1.38C10.83,23.71,11.85,24.94,11.86,26.37c0,0.41,0.64,0.41,0.64,0c-0.01-1.52-0.97-2.89-2.4-3.42
				c-1.41-0.52-3.08-0.07-4.03,1.1c-0.97,1.19-1.12,2.89-0.32,4.21c0.8,1.31,2.36,1.98,3.85,1.68c1.67-0.34,2.88-1.87,2.89-3.56
				C12.5,25.96,11.86,25.96,11.86,26.37z"/>
		</g>
	</g>
	<g>
		<circle class="st0" cx="21.13" cy="3.64" r="3.32"/>
		<g>
			<path class="st0" d="M24.13,3.64c-0.01,1.24-0.79,2.4-1.97,2.82c-1.2,0.43-2.53,0.06-3.35-0.91c-0.81-0.97-0.9-2.4-0.24-3.47
				c0.64-1.06,1.92-1.63,3.13-1.38C23.1,0.97,24.12,2.21,24.13,3.64c0,0.41,0.64,0.41,0.64,0c-0.01-1.52-0.97-2.89-2.4-3.42
				c-1.41-0.52-3.08-0.07-4.03,1.1c-0.97,1.19-1.12,2.89-0.32,4.21c0.8,1.31,2.36,1.98,3.85,1.68c1.67-0.34,2.88-1.87,2.89-3.56
				C24.77,3.23,24.13,3.23,24.13,3.64z"/>
		</g>
	</g>
	<g>
		<circle class="st0" cx="21.13" cy="15" r="3.32"/>
		<g>
			<path class="st0" d="M24.13,15c-0.01,1.24-0.79,2.4-1.97,2.82c-1.2,0.43-2.53,0.06-3.35-0.91c-0.81-0.97-0.9-2.4-0.24-3.47
				c0.64-1.06,1.92-1.63,3.13-1.38C23.1,12.34,24.12,13.58,24.13,15c0,0.41,0.64,0.41,0.64,0c-0.01-1.52-0.97-2.89-2.4-3.42
				c-1.41-0.52-3.08-0.07-4.03,1.1c-0.97,1.19-1.12,2.89-0.32,4.21c0.8,1.31,2.36,1.98,3.85,1.68c1.67-0.34,2.88-1.87,2.89-3.56
				C24.77,14.59,24.13,14.59,24.13,15z"/>
		</g>
	</g>
	<g>
		<circle class="st0" cx="21.13" cy="26.37" r="3.32"/>
		<g>
			<path class="st0" d="M24.13,26.37c-0.01,1.24-0.79,2.4-1.97,2.82c-1.2,0.43-2.53,0.06-3.35-0.91c-0.81-0.97-0.9-2.4-0.24-3.47
				c0.64-1.06,1.92-1.63,3.13-1.38C23.1,23.71,24.12,24.94,24.13,26.37c0,0.41,0.64,0.41,0.64,0c-0.01-1.52-0.97-2.89-2.4-3.42
				c-1.41-0.52-3.08-0.07-4.03,1.1c-0.97,1.19-1.12,2.89-0.32,4.21c0.8,1.31,2.36,1.98,3.85,1.68c1.67-0.34,2.88-1.87,2.89-3.56
				C24.77,25.96,24.13,25.96,24.13,26.37z"/>
		</g>
	</g>
</g>
</svg>
