<svg id="Layer_1" data-name="Layer 1" xmlns="http://www.w3.org/2000/svg" viewBox="0 0 19.54 30"><defs><style>.cls-1{fill:#fff;}</style></defs><circle class="cls-1" cx="3.63" cy="3.64" r="3.32"/><path class="cls-1" d="M6.63,3.64a3,3,0,0,1-2,2.81,3,3,0,0,1-3.35-.91A3,3,0,0,1,4.2.69a3,3,0,0,1,2.43,3,.32.32,0,0,0,.63,0A3.67,3.67,0,0,0,4.87.22,3.63,3.63,0,0,0,.52,5.52,3.68,3.68,0,0,0,4.37,7.2a3.69,3.69,0,0,0,2.9-3.56A.32.32,0,0,0,6.63,3.64Z"/><circle class="cls-1" cx="3.63" cy="15" r="3.32"/><path class="cls-1" d="M6.63,15a3,3,0,0,1-2,2.82,3,3,0,0,1-3.59-4.38A3,3,0,0,1,4.2,12.06,3,3,0,0,1,6.63,15a.32.32,0,0,0,.63,0,3.68,3.68,0,0,0-2.39-3.42,3.64,3.64,0,1,0-.5,7A3.67,3.67,0,0,0,7.27,15,.32.32,0,0,0,6.63,15Z"/><circle class="cls-1" cx="3.63" cy="26.37" r="3.32"/><path class="cls-1" d="M6.63,26.37a3,3,0,0,1-2,2.82,3.06,3.06,0,0,1-3.35-.92A3,3,0,0,1,4.2,23.42a3,3,0,0,1,2.43,2.95.32.32,0,0,0,.63,0A3.67,3.67,0,0,0,4.87,23a3.64,3.64,0,1,0-.5,7,3.69,3.69,0,0,0,2.9-3.56A.32.32,0,0,0,6.63,26.37Z"/><circle class="cls-1" cx="15.9" cy="3.64" r="3.32"/><path class="cls-1" d="M18.9,3.64a3,3,0,0,1-2,2.81,3,3,0,0,1-3.35-.91,3,3,0,0,1-.24-3.47A3,3,0,0,1,18.9,3.64a.32.32,0,0,0,.64,0,3.64,3.64,0,1,0-6.75,1.88,3.64,3.64,0,0,0,6.75-1.88A.32.32,0,0,0,18.9,3.64Z"/><circle class="cls-1" cx="15.9" cy="15" r="3.32"/><path class="cls-1" d="M18.9,15a3,3,0,1,1-2.42-2.94A3,3,0,0,1,18.9,15a.32.32,0,0,0,.64,0,3.64,3.64,0,1,0-2.89,3.56A3.69,3.69,0,0,0,19.54,15,.32.32,0,0,0,18.9,15Z"/><circle class="cls-1" cx="15.9" cy="26.37" r="3.32"/><path class="cls-1" d="M18.9,26.37a3,3,0,0,1-2,2.82,3.07,3.07,0,0,1-3.35-.92,3,3,0,0,1,2.9-4.85,3,3,0,0,1,2.42,2.95.32.32,0,0,0,.64,0,3.64,3.64,0,1,0-2.89,3.56,3.68,3.68,0,0,0,2.89-3.56A.32.32,0,0,0,18.9,26.37Z"/></svg>